<?xml version="1.0" encoding="UTF-8" standalone="no"?>
<!-- Generator: Adobe Illustrator 21.0.0, SVG Export Plug-In . SVG Version: 6.00 Build 0)  -->

<svg
   xmlns:dc="http://purl.org/dc/elements/1.1/"
   xmlns:cc="http://creativecommons.org/ns#"
   xmlns:rdf="http://www.w3.org/1999/02/22-rdf-syntax-ns#"
   xmlns:svg="http://www.w3.org/2000/svg"
   xmlns="http://www.w3.org/2000/svg"
   xmlns:sodipodi="http://sodipodi.sourceforge.net/DTD/sodipodi-0.dtd"
   xmlns:inkscape="http://www.inkscape.org/namespaces/inkscape"
   version="1.1"
   id="Layer_1"
   x="0px"
   y="0px"
   width="110.02086"
   height="39.908192"
   viewBox="0 0 110.02086 39.908192"
   xml:space="preserve"
   inkscape:version="0.91 r13725"
   sodipodi:docname="bazar-logo.svg"><metadata
     id="metadata3736"><rdf:RDF><cc:Work
         rdf:about=""><dc:format>image/svg+xml</dc:format><dc:type
           rdf:resource="http://purl.org/dc/dcmitype/StillImage" /><dc:title></dc:title></cc:Work></rdf:RDF></metadata><defs
     id="defs3734" /><sodipodi:namedview
     pagecolor="#ffffff"
     bordercolor="#666666"
     borderopacity="1"
     objecttolerance="10"
     gridtolerance="10"
     guidetolerance="10"
     inkscape:pageopacity="0"
     inkscape:pageshadow="2"
     inkscape:window-width="1920"
     inkscape:window-height="993"
     id="namedview3732"
     showgrid="false"
     fit-margin-top="0"
     fit-margin-left="0"
     fit-margin-right="0"
     fit-margin-bottom="0"
     inkscape:zoom="1.712"
     inkscape:cx="55.2"
     inkscape:cy="86.011148"
     inkscape:window-x="0"
     inkscape:window-y="24"
     inkscape:window-maximized="1"
     inkscape:current-layer="Layer_1" /><style
     type="text/css"
     id="style3644">
	.st0{fill:#FF7700;}
	.st1{fill:#FFFFFF;}
	.st2{fill:#3C6FB6;}
	.st3{fill:#00BA00;}
	.st4{fill:#FF0000;}
	.st5{fill:#FF7700;stroke:#FF7700;stroke-width:0.216;stroke-miterlimit:22.9256;}
	.st6{fill:#F49706;}
	.st7{clip-path:url(#SVGID_5_);}
	.st8{clip-path:url(#SVGID_6_);}
	.st9{fill:#FF5500;}
</style><path
     class="st2"
     d="m 104.4,28.54 c 6,-3.7 7.3,-10.5 3.4,-15.6 -2,-2.5 -5.3,-4 -8.8,-4.5 -3.5,-0.5 -6,-0.7 -6.6,-0.8 -1.8,-0.2 -2,0.7 -2.2,2.3 l -3.4,24 c 0,0 -0.2,1.1 0.5,1.5 0.7,0.5 5.8,0.9 6.8,0.9 1,0 1.5,-0.5 1.7,-1.2 0.3,-0.7 0.5,-3.8 0.5,-3.8 0,0 0.2,-0.6 0.5,0 0.4,0.6 2.5,5 2.9,5.6 0.4,0.6 1.8,0.6 4.2,0.9 2.4,0.2 4.3,0.5 4.5,0.2 0.3,-0.4 0.5,-0.9 0.2,-1.7 -0.3,-0.8 -4.2,-7.8 -4.2,-7.8 z m -6.6,-5 c -0.3,-0.1 -0.2,-0.7 -0.2,-0.7 l 0.7,-5 c 0,0 0,-0.7 0.4,-0.6 0.4,0.1 2.6,0.8 2.5,3.3 0,1.4 -1.6,3.2 -3.4,3 z"
     id="path3674"
     inkscape:connector-curvature="0"
     style="fill:#3c6fb6" /><path
     class="st0"
     d="m 63.9,9.24 c 0.9,-1.7 2.1,-3.5 3.5,-5.1 1.4,-1.5 3,-2.9 4.5,-3.6 1.5,-0.6 3.3,-0.7 5.2,-0.3 1.9,0.5 3.8,1.5 5.2,3 1.3,-0.5 2.5,-0.8 3.9,-1.3 0.9,4.5 1.9,9.2 3,14.3 1.2,5.5 2.4,11.3 3.6,17.5 0.2,1.5 -0.5,2.6 -2.4,2.6 -6.5,-0.8 -12.7,-0.8 -18.4,-0.2 -5.3,0.6 -10.2,1.9 -14.4,3.7 -1.1,0.3 -1.9,-0.4 -1.6,-1.9 0.8,-5 1.6,-9.7 2.4,-14.3 0.7,-4.4 1.5,-8.6 2.1,-12.6 0,-0.3 0.1,-0.5 0.1,-0.8 0.3,-0.1 0.5,-0.2 0.8,-0.3 0.8,-0.3 1.7,-0.5 2.5,-0.7 l 0,0 z m 13.2,-1.2 c -1.5,0.5 -3.1,1 -4.5,1.5 -1.5,0.5 -2.9,0.9 -4.3,1.4 -0.2,0.1 -0.6,0.3 -0.8,1 -0.1,0.4 -1.2,5.3 -2.4,10.4 -1.2,5.3 -2.4,10.6 -2.4,10.6 0,0 -0.3,0.9 0.2,1.2 0.5,0.3 6.7,-1.5 6.7,-1.5 0,0 0.7,0 1,-1 0.2,-1 0.5,-3 0.5,-3 1.5,-0.3 2.9,-0.5 4.4,-0.9 0.3,1.1 0.5,2.2 0.8,3.3 0,0 0.1,0.7 1.1,0.8 1,0.1 7.6,-0.5 7.6,-0.5 0,0 0.8,-0.5 0.6,-1.5 -0.2,-0.9 -2.1,-6.5 -4,-11.9 -1.7,-4.9 -3.3,-9.4 -3.3,-9.4 0.1,-0.8 -0.4,-0.7 -1.2,-0.5 l 0,0 z m -5,14.1 c 0.8,-0.2 1.5,-0.4 2.4,-0.5 -0.5,-1.6 -0.9,-3.2 -1.3,-4.7 -0.4,1.6 -0.8,3.4 -1.1,5.2 l 0,0 z m 5.3,-17.4 c -1.7,-2.3 -3.5,-3.2 -5,-2.6 -1.5,0.5 -3.1,2.4 -4.7,5.7 1.5,-0.5 3.1,-1 4.7,-1.5 1.7,-0.5 3.4,-1 5,-1.6 l 0,0 z"
     id="path3676"
     inkscape:connector-curvature="0"
     style="fill:#ff7700" /><path
     class="st1"
     d="m 85.7,29.64 c -0.2,-0.9 -2.1,-6.5 -4,-11.9 -1.7,-4.9 -3.3,-9.4 -3.3,-9.4 0,-0.6 -0.5,-0.5 -1.3,-0.4 -1.5,0.5 -3.1,1 -4.5,1.5 -1.5,0.5 -2.9,0.9 -4.3,1.4 -0.2,0.1 -0.6,0.3 -0.8,1 -0.1,0.4 -1.2,5.3 -2.4,10.4 -1.2,5.3 -2.4,10.6 -2.4,10.6 0,0 -0.3,0.9 0.2,1.2 0.5,0.3 6.7,-1.5 6.7,-1.5 0,0 0.7,0 1,-1 0.2,-1 0.5,-3 0.5,-3 1.5,-0.3 2.9,-0.5 4.4,-0.9 0.3,1.1 0.5,2.2 0.8,3.3 0,0 0.1,0.7 1.1,0.8 1,0.1 7.6,-0.5 7.6,-0.5 0,0 0.9,-0.7 0.7,-1.6 z m -13.6,-7.5 c 0.4,-1.8 0.7,-3.5 1.1,-5.3 0.4,1.5 0.8,3.1 1.3,4.7 -0.9,0.2 -1.6,0.4 -2.4,0.6 z"
     id="path3678"
     inkscape:connector-curvature="0"
     style="fill:#ffffff" /><path
     class="st2"
     d="M 39.5,8.64 C 39.3,8.14 38.8,7.94 38,8.04 L 27.2,7.94 c -0.3,0 -0.9,0.1 -1,1 -0.1,0.3 -0.6,2.7 -1.4,6.1 0.2,1.5 0,3.1 -0.7,4.5 -0.2,0.3 -0.4,0.5 -0.5,0.8 l -0.3,1.1 c 0.8,0.6 1.5,1.5 1.9,2.5 0.8,1.7 1,3.6 0.5,5.5 -0.5,2.2 -1.8,4.1 -3.5,5.5 -0.2,0.2 -0.4,0.3 -0.6,0.5 2.1,0.2 7,0.2 7,0.2 0,0 0.8,0.2 1.1,-0.9 0.3,-1 0.7,-3.9 0.7,-3.9 l 4.8,0 0.6,4.4 c 0,0 0.1,0.8 1,1 1,0.3 7.5,0.1 7.5,0.1 0,0 0.8,-0.1 0.7,-1.4 0,-1.5 -5.5,-26.3 -5.5,-26.3 z m -8,15 1.4,-6 1.3,6.1 -2.7,-0.1 z"
     id="path3680"
     inkscape:connector-curvature="0"
     style="fill:#3c6fb6" /><path
     class="st2"
     d="m 20.8,21.74 -0.1,-0.6 c 0,0 1.1,-0.9 1.9,-2.3 1.5,-2.7 0.2,-7.3 -2.8,-9.3 -2.1,-1.4 -4.7,-2.1 -8.2,-1.9 -4,0.2 -6.6,0.5 -10.5,0.8 0,0 -1,0.2 -1.1,0.8 0,0.5 0.2,1.2 0.2,1.2 l 2.5,26.4 c 0,0 0.2,0.9 0.8,1 0.7,0.1 8.6,-0.8 9.8,-1 14,-2.2 12.4,-13.4 7.5,-15.1 z M 11,19.54 c -0.3,-0.1 -0.3,-0.5 -0.3,-0.5 0,0 -0.4,-4.1 -0.4,-4.5 0,-0.4 0.3,-0.4 0.5,-0.4 0.5,-0.1 1.6,-0.2 2.1,0 0.7,0.1 2.2,0.5 2.4,2.4 0.2,1.9 -1.9,2.5 -2.2,2.6 -0.3,0.3 -1.8,0.5 -2.1,0.4 z m 3,10.4 c -0.3,0.1 -1.8,0.4 -2.1,0.3 -0.3,-0.1 -0.3,-0.5 -0.3,-0.5 0,0 -0.4,-4.1 -0.4,-4.5 0,-0.4 0.3,-0.4 0.5,-0.4 0.5,0 1.7,-0.1 2.1,0 0.7,0.1 2.2,0.5 2.4,2.4 0.2,2 -1.9,2.6 -2.2,2.7 z"
     id="path3682"
     inkscape:connector-curvature="0"
     style="fill:#3c6fb6" /><path
     class="st2"
     d="m 63,9.74 c -6.7,-0.6 -13.4,-1.5 -19.5,-2.3 0,0 -1.2,-0.4 -1.5,0.5 -0.1,0.3 -0.2,1.3 -0.4,2.4 0.3,1.3 0.7,3.3 1.2,5.6 2.6,0.5 8.4,1.1 8.4,1.1 0,0 0.6,0.5 -0.2,1 -0.8,0.5 -0.1,0 -0.1,0 l -6.6,4.7 c 1.2,5.8 2.4,11.2 2.4,11.8 0,0.2 0,0.4 0,0.6 5.9,0.8 12.9,1.6 12.9,1.6 0,0 1,0.3 1.1,-0.6 0.1,-0.9 0.8,-6.7 0.8,-6.7 0,0 0.3,-0.8 -1,-1 -1.3,-0.2 -9.2,-1.1 -9.2,-1.1 0,0 -0.5,-0.2 0,-0.5 0.5,-0.3 11.2,-8.2 11.2,-8.2 0,0 0.3,-0.1 0.4,-0.7 0.1,-0.5 0.9,-7.4 0.9,-7.4 0,0 0,-0.7 -0.8,-0.8 z"
     id="path3724"
     inkscape:connector-curvature="0"
     style="fill:#3c6fb6" /><path
     class="st0"
     d="m 56.2,36.94 c 0.5,0 4.5,0.6 4.6,-0.2 0.2,-0.8 1.2,-8 1.2,-8 0,0 -1.4,-0.4 -2.6,-0.5 -1.3,-0.1 -0.9,-0.1 -1.6,-0.1 l -1.6,8.8 0,0 z"
     id="path3726"
     inkscape:connector-curvature="0"
     style="fill:#ff7700" /></svg>